# Blender 4.2.3 LTS
# www.blender.org
mtllib thruster_rocket.mtl
o thruster_rocket_Cube
v -0.500000 -0.500000 -0.620833
v 0.500000 0.500000 -0.620833
v 0.500000 -0.500000 -0.620834
v 0.400000 0.400000 0.379167
v 0.320000 -0.320000 0.379167
v 0.400000 -0.400000 0.379167
v -0.400000 -0.400000 0.379167
v -0.240000 0.240000 -0.108333
v -0.240000 -0.240000 -0.108333
v -0.400000 0.400000 0.379167
v 0.240000 0.240000 -0.108333
v 0.240000 -0.240000 -0.108333
v 0.500000 -0.500000 -0.370833
v -0.500000 -0.500000 -0.370833
v -0.500000 0.500000 -0.370833
v -0.500000 0.500000 -0.620833
v 0.500000 0.500000 -0.370833
v -0.320000 0.320000 0.379167
v -0.160000 -0.160000 -0.020833
v -0.160000 0.160000 -0.020833
v -0.320000 -0.320000 0.379167
v 0.320000 0.320000 0.379167
v 0.160000 -0.160000 -0.020833
v 0.160000 0.160000 -0.020833
vn -0.0000 -0.0000 -1.0000
vn -0.0000 -0.0000 1.0000
vn -0.9501 -0.0000 -0.3118
vn -0.0000 0.9501 -0.3118
vn 0.9501 -0.0000 -0.3118
vn -0.0000 -1.0000 -0.0000
vn -0.0000 -0.7105 0.7037
vn 1.0000 -0.0000 -0.0000
vn -0.0000 1.0000 -0.0000
vn -1.0000 -0.0000 -0.0000
vn -0.0000 -0.9501 -0.3118
vn 0.7105 -0.0000 0.7037
vn -0.0000 0.7105 0.7037
vn -0.7105 -0.0000 0.7037
vn 0.9285 -0.0000 0.3714
vn -0.9285 -0.0000 0.3714
vn -0.0000 0.9285 0.3714
vn -0.0000 -0.9285 0.3714
vt 0.000000 0.000000
vt 1.000000 1.000000
vt 0.000000 1.000000
vt 0.937504 0.937504
vt 0.187504 0.437504
vt 0.812496 0.437504
vt 1.000000 0.250000
vt 0.000000 0.250000
vt 0.750000 0.562496
vt 0.250000 0.562496
vt 1.000000 0.000000
vt 0.124992 0.812496
vt 0.750000 0.312496
vt 0.250000 0.312496
vt 0.937504 0.062496
vt 0.062496 0.062496
vt 0.062496 0.937504
vt 0.624992 0.375008
vt 0.375008 0.624992
vt 0.375008 0.375008
vt 0.875008 0.812496
vt 0.624992 0.624992
s 1
usemtl Material.002
f 1/1/1 2/2/1 3/3/1
f 4/3/2 5/4/2 6/2/2
f 7/2/3 8/5/3 9/6/3
f 10/2/4 11/5/4 8/6/4
f 4/2/5 12/5/5 11/6/5
f 1/1/6 13/7/6 14/8/6
f 14/8/7 12/9/7 9/10/7
f 2/11/8 13/8/8 3/1/8
f 15/7/9 2/1/9 16/11/9
f 14/7/10 16/1/10 1/11/10
f 9/5/11 6/2/11 7/3/11
f 17/7/12 12/10/12 13/8/12
f 8/9/13 17/8/13 15/7/13
f 9/9/14 15/8/14 14/7/14
f 18/12/15 19/13/15 20/14/15
f 6/2/2 21/15/2 7/11/2
f 4/3/2 18/16/2 22/17/2
f 7/11/2 18/16/2 10/1/2
f 23/18/2 20/19/2 19/20/2
f 22/21/16 23/14/16 5/12/16
f 5/21/17 19/14/17 21/12/17
f 22/12/18 20/13/18 24/14/18
f 1/1/1 16/11/1 2/2/1
f 4/3/2 22/17/2 5/4/2
f 7/2/3 10/3/3 8/5/3
f 10/2/4 4/3/4 11/5/4
f 4/2/5 6/3/5 12/5/5
f 1/1/6 3/11/6 13/7/6
f 14/8/7 13/7/7 12/9/7
f 2/11/8 17/7/8 13/8/8
f 15/7/9 17/8/9 2/1/9
f 14/7/10 15/8/10 16/1/10
f 9/5/11 12/6/11 6/2/11
f 17/7/12 11/9/12 12/10/12
f 8/9/13 11/10/13 17/8/13
f 9/9/14 8/10/14 15/8/14
f 18/12/15 21/21/15 19/13/15
f 6/2/2 5/4/2 21/15/2
f 4/3/2 10/1/2 18/16/2
f 7/11/2 21/15/2 18/16/2
f 23/18/2 24/22/2 20/19/2
f 22/21/16 24/13/16 23/14/16
f 5/21/17 23/13/17 19/14/17
f 22/12/18 18/21/18 20/13/18
