# Blender 4.2.3 LTS
# www.blender.org
mtllib thruster_rocket_internal.mtl
o thruster_rocket_internal_Cube
v -0.500000 0.500000 -0.800000
v 0.500000 -0.500000 -0.800000
v -0.500000 -0.500000 -0.800000
v 0.500000 -0.500000 0.200000
v 0.400000 0.400000 0.200000
v 0.400000 -0.400000 0.200000
v 0.500000 0.500000 0.200000
v 0.500000 0.500000 -0.800000
v -0.500000 0.500000 0.200000
v -0.400000 -0.400000 0.200000
v -0.200000 0.200000 -0.200000
v -0.400000 0.400000 0.200000
v -0.500000 -0.500000 0.200000
v 0.200000 -0.200000 -0.200000
v -0.200000 -0.200000 -0.200000
v 0.200000 0.200000 -0.200000
vn -0.0000 -0.0000 -1.0000
vn -0.0000 -0.0000 1.0000
vn -0.0000 1.0000 -0.0000
vn -1.0000 -0.0000 -0.0000
vn -0.0000 -1.0000 -0.0000
vn 1.0000 -0.0000 -0.0000
vn 0.8944 -0.0000 0.4472
vn -0.8944 -0.0000 0.4472
vn -0.0000 0.8944 0.4472
vn -0.0000 -0.8944 0.4472
vt 1.000000 0.000000
vt 0.000000 1.000000
vt 0.000000 0.000000
vt 1.000000 1.000000
vt 0.062496 0.937504
vt 0.937504 0.937504
vt 0.875008 0.812496
vt 0.250000 0.312496
vt 0.124992 0.812496
vt 0.937504 0.062496
vt 0.062496 0.062496
vt 0.624992 0.375008
vt 0.375008 0.624992
vt 0.375008 0.375008
vt 0.750000 0.312496
vt 0.624992 0.624992
s 1
usemtl Material.001
f 1/1/1 2/2/1 3/3/1
f 4/4/2 5/5/2 6/6/2
f 1/1/3 7/2/3 8/3/3
f 3/1/4 9/2/4 1/3/4
f 4/4/5 3/3/5 2/1/5
f 8/1/6 4/2/6 2/3/6
f 10/7/7 11/8/7 12/9/7
f 13/1/2 6/6/2 10/10/2
f 7/2/2 12/11/2 5/5/2
f 9/3/2 10/10/2 12/11/2
f 14/12/2 11/13/2 15/14/2
f 5/7/8 14/8/8 6/9/8
f 6/7/9 15/8/9 10/9/9
f 12/7/10 16/8/10 5/9/10
f 1/1/1 8/4/1 2/2/1
f 4/4/2 7/2/2 5/5/2
f 1/1/3 9/4/3 7/2/3
f 3/1/4 13/4/4 9/2/4
f 4/4/5 13/2/5 3/3/5
f 8/1/6 7/4/6 4/2/6
f 10/7/7 15/15/7 11/8/7
f 13/1/2 4/4/2 6/6/2
f 7/2/2 9/3/2 12/11/2
f 9/3/2 13/1/2 10/10/2
f 14/12/2 16/16/2 11/13/2
f 5/7/8 16/15/8 14/8/8
f 6/7/9 14/15/9 15/8/9
f 12/7/10 11/15/10 16/8/10
