# Made in Blockbench 3.9.2
mtllib westchester.mtl
o tube
v 0.053033008588991085 0.06508883476483189 1.625
v 0.053033008588991085 0.06508883476483189 0.8125
v -1.0408340855860843e-17 0.012055826175840806 1.625
v -1.0408340855860843e-17 0.012055826175840806 0.8125
v 3.122502256758253e-17 0.11812184335382296 0.8125
v 3.122502256758253e-17 0.11812184335382296 1.625
v -0.05303300858899107 0.06508883476483188 0.8125
v -0.05303300858899107 0.06508883476483188 1.625
vt 0.40625 0.53125
vt 0.40625 0.5
vt 0 0.53125
vt 0.40625 0.5
vt 0 0.5
vt 0 0.53125
vt 0 0.53125
vt 0 0.5
vt 0.40625 0.53125
vt 0 0.5
vt 0.40625 0.5
vt 0.40625 0.53125
vt 0 0.5
vt 0.40625 0.5
vt 0 0.53125
vt 0.40625 0.5
vt 0.40625 0.53125
vt 0 0.53125
vt 0.40625 0.53125
vt 0 0.53125
vt 0.40625 0.5
vt 0 0.53125
vt 0 0.5
vt 0.40625 0.5
vt 0.375 0.53125
vt 0.375 0.5
vt 0.40625 0.53125
vt 0.375 0.5
vt 0.40625 0.5
vt 0.40625 0.53125
vt 0 0.53125
vt 0 0.5
vt 0.03125 0.53125
vt 0 0.5
vt 0.03125 0.5
vt 0.03125 0.53125
vn 0.7071067811865475 -0.7071067811865477 0
vn 0.7071067811865475 -0.7071067811865477 0
vn 0.7071067811865475 -0.7071067811865477 0
vn 0.7071067811865475 -0.7071067811865477 0
vn 0.7071067811865475 -0.7071067811865477 0
vn 0.7071067811865475 -0.7071067811865477 0
vn -0.7071067811865475 0.7071067811865477 0
vn -0.7071067811865475 0.7071067811865477 0
vn -0.7071067811865475 0.7071067811865477 0
vn -0.7071067811865475 0.7071067811865477 0
vn -0.7071067811865475 0.7071067811865477 0
vn -0.7071067811865475 0.7071067811865477 0
vn 0.7071067811865477 0.7071067811865475 0
vn 0.7071067811865477 0.7071067811865475 0
vn 0.7071067811865477 0.7071067811865475 0
vn 0.7071067811865477 0.7071067811865475 0
vn 0.7071067811865477 0.7071067811865475 0
vn 0.7071067811865477 0.7071067811865475 0
vn -0.7071067811865477 -0.7071067811865475 0
vn -0.7071067811865477 -0.7071067811865475 0
vn -0.7071067811865477 -0.7071067811865475 0
vn -0.7071067811865477 -0.7071067811865475 0
vn -0.7071067811865477 -0.7071067811865475 0
vn -0.7071067811865477 -0.7071067811865475 0
vn 0 0 1
vn 0 0 1
vn 0 0 1
vn 0 0 1
vn 0 0 1
vn 0 0 1
vn 0 0 -1
vn 0 0 -1
vn 0 0 -1
vn 0 0 -1
vn 0 0 -1
vn 0 0 -1
usemtl m_0
f 1/1/1 3/2/2 2/3/3
f 3/4/4 4/5/5 2/6/6
usemtl m_0
f 5/7/7 7/8/8 6/9/9
f 7/10/10 8/11/11 6/12/12
usemtl m_0
f 5/13/13 6/14/14 2/15/15
f 6/16/16 1/17/17 2/18/18
usemtl m_0
f 8/19/19 7/20/20 3/21/21
f 7/22/22 4/23/23 3/24/24
usemtl m_0
f 6/25/25 8/26/26 1/27/27
f 8/28/28 3/29/29 1/30/30
usemtl m_0
f 2/31/31 4/32/32 5/33/33
f 4/34/34 7/35/35 5/36/36
o barrel
v 0.04375 0.17500000000000002 1.71875
v 0.04375 0.17500000000000002 0.8125
v 0.04375 0.08750000000000001 1.71875
v 0.04375 0.08750000000000001 0.8125
v -0.04375 0.17500000000000002 0.8125
v -0.04375 0.17500000000000002 1.71875
v -0.04375 0.08750000000000001 0.8125
v -0.04375 0.08750000000000001 1.71875
vt 0.4375 0.5625
vt 0.4375 0.53125
vt 0 0.5625
vt 0.4375 0.53125
vt 0 0.53125
vt 0 0.5625
vt 0 0.5625
vt 0 0.53125
vt 0.4375 0.5625
vt 0 0.53125
vt 0.4375 0.53125
vt 0.4375 0.5625
vt 0 0.53125
vt 0.4375 0.53125
vt 0 0.5625
vt 0.4375 0.53125
vt 0.4375 0.5625
vt 0 0.5625
vt 0.4375 0.5625
vt 0 0.5625
vt 0.4375 0.53125
vt 0 0.5625
vt 0 0.53125
vt 0.4375 0.53125
vt 0.40625 0.5625
vt 0.40625 0.53125
vt 0.4375 0.5625
vt 0.40625 0.53125
vt 0.4375 0.53125
vt 0.4375 0.5625
vt 0 0.5625
vt 0 0.53125
vt 0.03125 0.5625
vt 0 0.53125
vt 0.03125 0.53125
vt 0.03125 0.5625
vn 1 0 0
vn 1 0 0
vn 1 0 0
vn 1 0 0
vn 1 0 0
vn 1 0 0
vn -1 0 0
vn -1 0 0
vn -1 0 0
vn -1 0 0
vn -1 0 0
vn -1 0 0
vn 0 1 0
vn 0 1 0
vn 0 1 0
vn 0 1 0
vn 0 1 0
vn 0 1 0
vn 0 -1 0
vn 0 -1 0
vn 0 -1 0
vn 0 -1 0
vn 0 -1 0
vn 0 -1 0
vn 0 0 1
vn 0 0 1
vn 0 0 1
vn 0 0 1
vn 0 0 1
vn 0 0 1
vn 0 0 -1
vn 0 0 -1
vn 0 0 -1
vn 0 0 -1
vn 0 0 -1
vn 0 0 -1
usemtl m_0
f 9/37/37 11/38/38 10/39/39
f 11/40/40 12/41/41 10/42/42
usemtl m_0
f 13/43/43 15/44/44 14/45/45
f 15/46/46 16/47/47 14/48/48
usemtl m_0
f 13/49/49 14/50/50 10/51/51
f 14/52/52 9/53/53 10/54/54
usemtl m_0
f 16/55/55 15/56/56 11/57/57
f 15/58/58 12/59/59 11/60/60
usemtl m_0
f 14/61/61 16/62/62 9/63/63
f 16/64/64 11/65/65 9/66/66
usemtl m_0
f 10/67/67 12/68/68 13/69/69
f 12/70/70 15/71/71 13/72/72
o sight_rear
v 0.04375 0.25000000000000006 0.4375625
v 0.04375 0.25000000000000006 0.4375
v 0.04375 0.175 0.4375625
v 0.04375 0.175 0.4375
v -0.04375 0.25000000000000006 0.4375
v -0.04375 0.25000000000000006 0.4375625
v -0.04375 0.175 0.4375
v -0.04375 0.175 0.4375625
vt 0.09375 0.6875
vt 0.09375 0.625
vt 0.1875 0.6875
vt 0.09375 0.625
vt 0.1875 0.625
vt 0.1875 0.6875
vt 0.09375 0.6875
vt 0.09375 0.625
vt 0.1875 0.6875
vt 0.09375 0.625
vt 0.1875 0.625
vt 0.1875 0.6875
vn 0 0 1
vn 0 0 1
vn 0 0 1
vn 0 0 1
vn 0 0 1
vn 0 0 1
vn 0 0 -1
vn 0 0 -1
vn 0 0 -1
vn 0 0 -1
vn 0 0 -1
vn 0 0 -1
usemtl m_0
f 22/73/73 24/74/74 17/75/75
f 24/76/76 19/77/77 17/78/78
usemtl m_0
f 18/79/79 20/80/80 21/81/81
f 20/82/82 23/83/83 21/84/84
o sight_fore
v 0.04375 0.25000000000000006 1.6250625
v 0.04375 0.25000000000000006 1.625
v 0.04375 0.175 1.6250625
v 0.04375 0.175 1.625
v -0.04375 0.25000000000000006 1.625
v -0.04375 0.25000000000000006 1.6250625
v -0.04375 0.175 1.625
v -0.04375 0.175 1.6250625
vt 0.1875 0.6875
vt 0.1875 0.625
vt 0.28125 0.6875
vt 0.1875 0.625
vt 0.28125 0.625
vt 0.28125 0.6875
vt 0.1875 0.6875
vt 0.1875 0.625
vt 0.28125 0.6875
vt 0.1875 0.625
vt 0.28125 0.625
vt 0.28125 0.6875
vn 0 0 1
vn 0 0 1
vn 0 0 1
vn 0 0 1
vn 0 0 1
vn 0 0 1
vn 0 0 -1
vn 0 0 -1
vn 0 0 -1
vn 0 0 -1
vn 0 0 -1
vn 0 0 -1
usemtl m_0
f 30/85/85 32/86/86 25/87/87
f 32/88/88 27/89/89 25/90/90
usemtl m_0
f 26/91/91 28/92/92 29/93/93
f 28/94/94 31/95/95 29/96/96
o hammer
v 0.0000625 0.23125 0
v 0.0000625 0.23125 -0.1375
v 0.0000625 0.09375 0
v 0.0000625 0.09375 -0.1375
v 0 0.23125 -0.1375
v 0 0.23125 0
v 0 0.09375 -0.1375
v 0 0.09375 0
vt 0 0.6875
vt 0 0.59375
vt 0.09375 0.6875
vt 0 0.59375
vt 0.09375 0.59375
vt 0.09375 0.6875
vt 0.09375 0.6875
vt 0.09375 0.59375
vt 0 0.6875
vt 0.09375 0.59375
vt 0 0.59375
vt 0 0.6875
vn 1 0 0
vn 1 0 0
vn 1 0 0
vn 1 0 0
vn 1 0 0
vn 1 0 0
vn -1 0 0
vn -1 0 0
vn -1 0 0
vn -1 0 0
vn -1 0 0
vn -1 0 0
usemtl m_0
f 33/97/97 35/98/98 34/99/99
f 35/100/100 36/101/101 34/102/102
usemtl m_0
f 37/103/103 39/104/104 38/105/105
f 39/106/106 40/107/107 38/108/108
o reciever
v 0.04999999999999996 0.1875 0.8125
v 0.04999999999999996 0.1875 0
v 0.04999999999999996 0 0.8125
v 0.04999999999999996 0 0
v -0.04999999999999999 0.1875 0
v -0.04999999999999999 0.1875 0.8125
v -0.04999999999999999 0 0
v -0.04999999999999999 0 0.8125
vt 0.9375 0.90625
vt 0.9375 1
vt 0.53125 0.90625
vt 0.9375 1
vt 0.53125 1
vt 0.53125 0.90625
vt 0.53125 0.84375
vt 0.53125 0.75
vt 0.9375 0.84375
vt 0.53125 0.75
vt 0.9375 0.75
vt 0.9375 0.84375
vt 0.53125 0.84375
vt 0.9375 0.84375
vt 0.53125 0.90625
vt 0.9375 0.84375
vt 0.9375 0.90625
vt 0.53125 0.90625
vt 0.9375 0.75
vt 0.53125 0.75
vt 0.9375 0.6875
vt 0.53125 0.75
vt 0.53125 0.6875
vt 0.9375 0.6875
vt 0.875 0.84375
vt 0.875 0.75
vt 0.9375 0.84375
vt 0.875 0.75
vt 0.9375 0.75
vt 0.9375 0.84375
vt 0.53125 0.84375
vt 0.53125 0.75
vt 0.59375 0.84375
vt 0.53125 0.75
vt 0.59375 0.75
vt 0.59375 0.84375
vn 1 0 0
vn 1 0 0
vn 1 0 0
vn 1 0 0
vn 1 0 0
vn 1 0 0
vn -1 0 0
vn -1 0 0
vn -1 0 0
vn -1 0 0
vn -1 0 0
vn -1 0 0
vn 0 1 0
vn 0 1 0
vn 0 1 0
vn 0 1 0
vn 0 1 0
vn 0 1 0
vn 0 -1 0
vn 0 -1 0
vn 0 -1 0
vn 0 -1 0
vn 0 -1 0
vn 0 -1 0
vn 0 0 1
vn 0 0 1
vn 0 0 1
vn 0 0 1
vn 0 0 1
vn 0 0 1
vn 0 0 -1
vn 0 0 -1
vn 0 0 -1
vn 0 0 -1
vn 0 0 -1
vn 0 0 -1
usemtl m_0
f 41/109/109 43/110/110 42/111/111
f 43/112/112 44/113/113 42/114/114
usemtl m_0
f 45/115/115 47/116/116 46/117/117
f 47/118/118 48/119/119 46/120/120
usemtl m_0
f 45/121/121 46/122/122 42/123/123
f 46/124/124 41/125/125 42/126/126
usemtl m_0
f 48/127/127 47/128/128 43/129/129
f 47/130/130 44/131/131 43/132/132
usemtl m_0
f 46/133/133 48/134/134 41/135/135
f 48/136/136 43/137/137 41/138/138
usemtl m_0
f 42/139/139 44/140/140 45/141/141
f 44/142/142 47/143/143 45/144/144
o handle
v 0.03749999999999995 0.13343973619189078 0.008920403321595188
v 0.03749999999999995 0.03638259427844549 -0.35330178153680547
v 0.03749999999999995 0.006661971491450591 0.042890402991301035
v 0.03749999999999995 -0.09039517042199469 -0.31933178186709965
v -0.03749999999999998 0.03638259427844549 -0.35330178153680547
v -0.03749999999999998 0.13343973619189078 0.008920403321595188
v -0.03749999999999998 -0.09039517042199469 -0.31933178186709965
v -0.03749999999999998 0.006661971491450591 0.042890402991301035
vt 0.5 0.90625
vt 0.5 1
vt 0.3125 0.90625
vt 0.5 1
vt 0.3125 1
vt 0.3125 0.90625
vt 0.3125 0.84375
vt 0.3125 0.75
vt 0.5 0.84375
vt 0.3125 0.75
vt 0.5 0.75
vt 0.5 0.84375
vt 0.3125 0.84375
vt 0.5 0.84375
vt 0.3125 0.90625
vt 0.5 0.84375
vt 0.5 0.90625
vt 0.3125 0.90625
vt 0.5 0.75
vt 0.3125 0.75
vt 0.5 0.6875
vt 0.3125 0.75
vt 0.3125 0.6875
vt 0.5 0.6875
vt 0.4375 0.84375
vt 0.4375 0.75
vt 0.5 0.84375
vt 0.4375 0.75
vt 0.5 0.75
vt 0.5 0.84375
vt 0.3125 0.84375
vt 0.3125 0.75
vt 0.375 0.84375
vt 0.3125 0.75
vt 0.375 0.75
vt 0.375 0.84375
vn 1 0 0
vn 1 0 0
vn 1 0 0
vn 1 0 0
vn 1 0 0
vn 1 0 0
vn -1 0 0
vn -1 0 0
vn -1 0 0
vn -1 0 0
vn -1 0 0
vn -1 0 0
vn 0 0.9659258262890683 -0.25881904510252074
vn 0 0.9659258262890683 -0.25881904510252074
vn 0 0.9659258262890683 -0.25881904510252074
vn 0 0.9659258262890683 -0.25881904510252074
vn 0 0.9659258262890683 -0.25881904510252074
vn 0 0.9659258262890683 -0.25881904510252074
vn 0 -0.9659258262890683 0.25881904510252074
vn 0 -0.9659258262890683 0.25881904510252074
vn 0 -0.9659258262890683 0.25881904510252074
vn 0 -0.9659258262890683 0.25881904510252074
vn 0 -0.9659258262890683 0.25881904510252074
vn 0 -0.9659258262890683 0.25881904510252074
vn 0 0.25881904510252074 0.9659258262890683
vn 0 0.25881904510252074 0.9659258262890683
vn 0 0.25881904510252074 0.9659258262890683
vn 0 0.25881904510252074 0.9659258262890683
vn 0 0.25881904510252074 0.9659258262890683
vn 0 0.25881904510252074 0.9659258262890683
vn 0 -0.25881904510252074 -0.9659258262890683
vn 0 -0.25881904510252074 -0.9659258262890683
vn 0 -0.25881904510252074 -0.9659258262890683
vn 0 -0.25881904510252074 -0.9659258262890683
vn 0 -0.25881904510252074 -0.9659258262890683
vn 0 -0.25881904510252074 -0.9659258262890683
usemtl m_0
f 49/145/145 51/146/146 50/147/147
f 51/148/148 52/149/149 50/150/150
usemtl m_0
f 53/151/151 55/152/152 54/153/153
f 55/154/154 56/155/155 54/156/156
usemtl m_0
f 53/157/157 54/158/158 50/159/159
f 54/160/160 49/161/161 50/162/162
usemtl m_0
f 56/163/163 55/164/164 51/165/165
f 55/166/166 52/167/167 51/168/168
usemtl m_0
f 54/169/169 56/170/170 49/171/171
f 56/172/172 51/173/173 49/174/174
usemtl m_0
f 50/175/175 52/176/176 53/177/177
f 52/178/178 55/179/179 53/180/180
o lever
v 0.0000625 0.056186217847897235 0.1767766952966369
v 0.0000625 -0.0732233047033631 -0.30618621784789724
v 0.0000625 -0.12492487458130305 0.22530526625335953
v 0.0000625 -0.2543343971325634 -0.25765764689117465
v 0 -0.0732233047033631 -0.30618621784789724
v 0 0.056186217847897235 0.1767766952966369
v 0 -0.2543343971325634 -0.25765764689117465
v 0 -0.12492487458130305 0.22530526625335953
vt 0 0.46875
vt 0 0.28125
vt 0.4375 0.46875
vt 0 0.28125
vt 0.4375 0.28125
vt 0.4375 0.46875
vt 0.4375 0.46875
vt 0.4375 0.28125
vt 0 0.46875
vt 0.4375 0.28125
vt 0 0.28125
vt 0 0.46875
vn 1 0 0
vn 1 0 0
vn 1 0 0
vn 1 0 0
vn 1 0 0
vn 1 0 0
vn -1 0 0
vn -1 0 0
vn -1 0 0
vn -1 0 0
vn -1 0 0
vn -1 0 0
usemtl m_0
f 57/181/181 59/182/182 58/183/183
f 59/184/184 60/185/185 58/186/186
usemtl m_0
f 61/187/187 63/188/188 62/189/189
f 63/190/190 64/191/191 62/192/192
o stock
v 0.04999999999999996 0.0625 -0.3125
v 0.04999999999999996 0.0625 -0.9375
v 0.04999999999999996 -0.1875 -0.3125
v 0.04999999999999996 -0.1875 -0.9375
v -0.04999999999999999 0.0625 -0.9375
v -0.04999999999999999 0.0625 -0.3125
v -0.04999999999999999 -0.1875 -0.9375
v -0.04999999999999999 -0.1875 -0.3125
vt 0.28125 0.90625
vt 0.28125 1
vt 0 0.90625
vt 0.28125 1
vt 0 1
vt 0 0.90625
vt 0 0.84375
vt 0 0.75
vt 0.28125 0.84375
vt 0 0.75
vt 0.28125 0.75
vt 0.28125 0.84375
vt 0 0.84375
vt 0.28125 0.84375
vt 0 0.90625
vt 0.28125 0.84375
vt 0.28125 0.90625
vt 0 0.90625
vt 0.28125 0.75
vt 0 0.75
vt 0.28125 0.6875
vt 0 0.75
vt 0 0.6875
vt 0.28125 0.6875
vt 0.21875 0.84375
vt 0.21875 0.75
vt 0.28125 0.84375
vt 0.21875 0.75
vt 0.28125 0.75
vt 0.28125 0.84375
vt 0 0.78125
vt 0 0.6875
vt 0.0625 0.78125
vt 0 0.6875
vt 0.0625 0.6875
vt 0.0625 0.78125
vn 1 0 0
vn 1 0 0
vn 1 0 0
vn 1 0 0
vn 1 0 0
vn 1 0 0
vn -1 0 0
vn -1 0 0
vn -1 0 0
vn -1 0 0
vn -1 0 0
vn -1 0 0
vn 0 1 0
vn 0 1 0
vn 0 1 0
vn 0 1 0
vn 0 1 0
vn 0 1 0
vn 0 -1 0
vn 0 -1 0
vn 0 -1 0
vn 0 -1 0
vn 0 -1 0
vn 0 -1 0
vn 0 0 1
vn 0 0 1
vn 0 0 1
vn 0 0 1
vn 0 0 1
vn 0 0 1
vn 0 0 -1
vn 0 0 -1
vn 0 0 -1
vn 0 0 -1
vn 0 0 -1
vn 0 0 -1
usemtl m_0
f 65/193/193 67/194/194 66/195/195
f 67/196/196 68/197/197 66/198/198
usemtl m_0
f 69/199/199 71/200/200 70/201/201
f 71/202/202 72/203/203 70/204/204
usemtl m_0
f 69/205/205 70/206/206 66/207/207
f 70/208/208 65/209/209 66/210/210
usemtl m_0
f 72/211/211 71/212/212 67/213/213
f 71/214/214 68/215/215 67/216/216
usemtl m_0
f 70/217/217 72/218/218 65/219/219
f 72/220/220 67/221/221 65/222/222
usemtl m_0
f 66/223/223 68/224/224 69/225/225
f 68/226/226 71/227/227 69/228/228
