# Blender 4.2.3 LTS
# www.blender.org
mtllib thruster.mtl
o cuboid
v 0.375000 0.375000 0.500000
v 0.500000 0.500000 -0.500000
v 0.375000 -0.375000 0.500000
v 0.500000 -0.500000 -0.500000
v -0.375000 0.375000 0.500000
v -0.500000 0.500000 -0.500000
v -0.375000 -0.375000 0.500000
v -0.500000 -0.500000 -0.500000
v 0.250000 0.250000 -0.000000
v 0.250000 -0.250000 0.000000
v -0.250000 -0.250000 0.000000
v -0.250000 0.250000 -0.000000
v 0.315000 0.315000 0.500000
v -0.315000 0.315000 0.500000
v 0.315000 -0.315000 0.500000
v -0.315000 -0.315000 0.500000
v 0.157500 0.157500 -0.000000
v -0.157500 0.157500 -0.000000
v 0.157500 -0.157500 0.000000
v -0.157500 -0.157500 0.000000
v 0.498954 0.498954 -0.301032
v 0.498954 -0.498954 -0.301032
v -0.498954 -0.498954 -0.301032
v -0.498954 0.498954 -0.301032
vn 0.9701 -0.0000 -0.2425
vn -0.9701 -0.0000 -0.2425
vn -0.0000 0.9701 -0.2425
vn -0.0000 -0.9701 -0.2425
vn -0.0000 -0.0000 -1.0000
vn 0.7706 -0.0000 0.6373
vn -0.0000 -0.7706 0.6373
vn -0.7706 -0.0000 0.6373
vn -0.0000 0.7706 0.6373
vn -0.0000 -0.0000 1.0000
vn -0.9538 -0.0000 0.3004
vn -0.0000 -0.9538 0.3004
vn 0.9538 -0.0000 0.3004
vn -0.0000 0.9538 0.3004
vn 1.0000 -0.0000 0.0053
vn -0.0000 -1.0000 0.0053
vn -1.0000 -0.0000 0.0053
vn -0.0000 1.0000 0.0053
vt 0.250000 0.640387
vt 0.875000 0.250000
vt 0.125000 0.250000
vt 0.000000 1.000000
vt 1.000000 0.000000
vt 1.000000 1.000000
vt 0.997913 0.812500
vt 0.248956 0.421863
vt 0.748956 0.421863
vt 0.627500 0.687500
vt 0.312500 0.372500
vt 0.627500 0.372500
vt 0.937500 0.815000
vt 0.997500 0.125000
vt 0.997500 0.875000
vt 0.185000 0.940000
vt 0.875000 1.000000
vt 0.125000 1.000000
vt 0.060000 0.185000
vt 0.000000 0.875000
vt 0.000000 0.125000
vt 0.815000 0.062500
vt 0.125000 0.002500
vt 0.875000 0.002500
vt 0.345000 0.812500
vt 0.817500 0.288281
vt 0.660000 0.812500
vt 0.999986 0.801028
vt 0.000000 0.994754
vt 0.999986 1.000000
vt 0.750000 0.640387
vt 0.000000 0.000000
vt 0.000000 0.812500
vt 0.312500 0.687500
vt 0.937500 0.185000
vt 0.815000 0.940000
vt 0.060000 0.815000
vt 0.185000 0.062500
vt 0.187500 0.288281
vt 0.002087 0.795794
s 0
usemtl m_b95b584f-ae0d-ccc6-8746-872563581bb6
f 10/1/1 1/2/1 3/3/1
f 12/1/2 7/2/2 5/3/2
f 9/1/3 5/2/3 1/3/3
f 11/1/4 3/2/4 7/3/4
f 2/4/5 8/5/5 6/6/5
f 22/7/6 9/8/6 10/9/6
f 23/7/7 10/8/7 11/9/7
f 24/7/8 11/8/8 12/9/8
f 21/7/9 12/8/9 9/9/9
f 17/10/10 20/11/10 19/12/10
f 13/13/10 3/14/10 1/15/10
f 14/16/10 1/17/10 5/18/10
f 16/19/10 5/20/10 7/21/10
f 15/22/10 7/23/10 3/24/10
f 19/25/11 13/26/11 17/27/11
f 17/25/12 14/26/12 18/27/12
f 18/25/13 16/26/13 20/27/13
f 20/25/14 15/26/14 19/27/14
f 21/28/15 4/29/15 2/30/15
f 22/28/16 8/29/16 4/30/16
f 23/28/17 6/29/17 8/30/17
f 24/28/18 2/29/18 6/30/18
f 10/1/1 9/31/1 1/2/1
f 12/1/2 11/31/2 7/2/2
f 9/1/3 12/31/3 5/2/3
f 11/1/4 10/31/4 3/2/4
f 2/4/5 4/32/5 8/5/5
f 22/7/6 21/33/6 9/8/6
f 23/7/7 22/33/7 10/8/7
f 24/7/8 23/33/8 11/8/8
f 21/7/9 24/33/9 12/8/9
f 17/10/10 18/34/10 20/11/10
f 13/13/10 15/35/10 3/14/10
f 14/16/10 13/36/10 1/17/10
f 16/19/10 14/37/10 5/20/10
f 15/22/10 16/38/10 7/23/10
f 19/25/11 15/39/11 13/26/11
f 17/25/12 13/39/12 14/26/12
f 18/25/13 14/39/13 16/26/13
f 20/25/14 16/39/14 15/26/14
f 21/28/15 22/40/15 4/29/15
f 22/28/16 23/40/16 8/29/16
f 23/28/17 24/40/17 6/29/17
f 24/28/18 21/40/18 2/29/18
